<svg xmlns="http://www.w3.org/2000/svg" xmlns:xlink="http://www.w3.org/1999/xlink" x="0px" y="0px" viewBox="0 0 348 253" id="shape-logo-psl"><path d="M79.9 170.9H3.3c-1.8 0-3.2-1.5-3.2-3.2V91.2c0-1.8 1.5-3.2 3.2-3.2h76.5c1.8 0 3.2 1.5 3.2 3.2v76.5c.1 1.7-1.3 3.2-3.1 3.2zm-73.3-6.5h70v-70h-70v70zm165.3 6.5H87.7c-1.1 0-2.2-.6-2.8-1.6-.6-1-.6-2.2-.1-3.2l42.1-76.5c.6-1 1.7-1.7 2.8-1.7 1.2 0 2.3.6 2.8 1.7l41.9 76.2c.4.5.6 1.2.6 1.9.1 1.7-1.3 3.2-3.1 3.2zm-78.7-6.5h73.2l-36.6-66.5-36.6 66.5zm124.7 6.5c-1.2 0-2.3-.6-2.8-1.7L173 92.7c-.6-1-.5-2.2 0-3.2.6-1 1.6-1.6 2.8-1.6H260c1.1 0 2.2.6 2.8 1.6.6 1 .6 2.2 0 3.2l-42.1 76.5c-.5 1-1.6 1.7-2.8 1.7zm-36.6-76.5l36.6 66.5 36.6-66.5h-73.2zm163 76.5h-76.5c-1.8 0-3.3-1.5-3.3-3.2V91.2c0-1.8 1.5-3.2 3.3-3.2h76.5c1.8 0 3.2 1.5 3.2 3.2v76.5c.1 1.7-1.4 3.2-3.2 3.2zm-73.3-6.5h70v-70h-70v70zM41.6 83.9C18.7 83.9.1 65.3.1 42.4S18.7.9 41.6.9s41.5 18.6 41.5 41.5-18.6 41.5-41.5 41.5zm0-76.6c-19.3 0-35 15.7-35 35s15.7 35 35 35 35-15.7 35-35-15.7-35-35-35zM306 83.9c-22.9 0-41.5-18.6-41.5-41.5S283.1.9 306 .9s41.5 18.6 41.5 41.5c.1 22.9-18.6 41.5-41.5 41.5zm0-76.6c-19.3 0-35 15.7-35 35s15.7 35 35 35 35-15.7 35-35c.1-19.3-15.6-35-35-35zm-88.1 76.6c-22.9 0-41.5-18.6-41.5-41.5S195 .9 217.9.9s41.5 18.6 41.5 41.5-18.6 41.5-41.5 41.5zm0-76.6c-19.3 0-35 15.7-35 35s15.7 35 35 35 35-15.7 35-35-15.7-35-35-35zm-88.1 76.6c-22.9 0-41.5-18.6-41.5-41.5S106.9.9 129.8.9s41.5 18.6 41.5 41.5-18.7 41.5-41.5 41.5zm0-76.6c-19.3 0-35 15.7-35 35s15.7 35 35 35 35-15.7 35-35-15.7-35-35-35zm-19 240H97.5v-21.2H91v26h19.8v-4.8zm11.8-21.2h-6.5v26h6.5v-26zm7.8 0v26h6.5v-10.4h5.1c6 0 8.6-4.2 8.6-7.9 0-3.5-2.7-7.7-8.6-7.7h-11.6zm6.5 4.8h2.3c3.5 0 4.8.8 4.8 3 0 1.9-1.1 3-4 3h-3v-6h-.1zm46.1-4.8h-6.5V242l-13.9-15.9h-5.9v26h6.5v-16.7l14.4 16.7h5.5v-26h-.1zm14.1 0h-6.5v26h6.5v-26zm31.7 18.1c-3.7 1.8-6 2.9-9.4 2.9-5.4 0-9.3-3.3-9.3-8 0-4.6 3.9-7.9 9.4-7.9 3.2 0 6.1 1.1 9 2.7v-5.8c-2.6-1.5-5.8-2.3-9.4-2.3-10 0-15.6 6.5-15.6 13.4 0 6.7 5 13.3 15.1 13.3 3.8 0 6.6-.7 10.2-2.6v-5.7zm26 3.1h-12.7V241H254v-4.8h-11.9v-5.5h12.4v-4.8h-18.9v26h19.2v-4.6zM3.4 185.5v26h6.5V201H15c6 0 8.6-4.2 8.6-7.9 0-3.5-2.7-7.7-8.6-7.7H3.4v.1zm6.5 4.8h2.3c3.5 0 4.8.8 4.8 3 0 1.9-1.1 3-4 3h-3v-6h-.1zm24.8 3.6h-5.5v17.6h5.5v-7.6c1.2-3.2 2.5-5.1 4.5-5.1.9 0 1.8.4 3.3 1.3l1.5-4.9c-1.6-1.2-2.6-1.6-3.7-1.6-2.1 0-4 1.7-5.6 5.4h-.1v-5.1h.1zm30.9 13.2c-1.3.9-1.7 1-2.1 1-.6 0-.9-.3-.9-1.2v-8c0-3.9-3-5.3-7.4-5.3-2.8 0-5.3.7-7.6 2.1v4.5c1.8-1.8 4.3-2.9 6.5-2.9 2.4 0 3.2 1.3 3.1 2.9-7.4 2.3-10.4 3.1-10.4 7.3 0 2.2 2.1 4.3 4.9 4.3 1.9 0 3.7-.5 5.8-2 .4 1.4 1.3 2 3.1 2 1.5 0 3.7-.7 5.2-1.6v-3.1h-.2zm-8.5.1c-.9.8-2 1.3-3.1 1.3-1 0-1.8-.8-1.8-1.9 0-1.8 1.6-2.5 4.8-3.7v4.3h.1zm4-21h-5.7l-2.9 5.9h3.3l5.3-5.9zm7.6 7.7v3.8h8.2l-9 13.8h18v-3.8h-9l9-13.8H68.7zm39.8-8.4H103v9.2c-1.5-.7-3-1.1-4.6-1.1-5 0-8.5 3.7-8.5 9.1 0 5.3 3.5 9.1 8.2 9.1 1.9 0 3.3-.5 4.9-1.8v1.4h5.5v-25.9zm-5.5 21.2c-1.1 1-2.1 1.4-3.3 1.4-2.6 0-4.2-2.1-4.2-5.3 0-3.5 1.6-5.5 4.4-5.5 1 0 2.3.5 3.1 1v8.4zm17.1-12.8h-5.5v17.6h5.5v-11.3c1.4-2.2 2.5-2.9 3.9-2.9 1.6 0 2.7 1 2.7 3.5v10.7h5.5v-11.2c0-5.2-3.7-6.7-6.4-6.7-2.2 0-4 .8-5.7 2.9v-2.6zm23.8 0h-5.5v17.6h5.5v-17.6zm-2.7-8.8c-1.7 0-3 1.4-3 3.1 0 1.7 1.4 3.1 3 3.1 1.7 0 3.1-1.4 3.1-3.1-.1-1.7-1.5-3.1-3.1-3.1zm14.5 8.8h-5.5v17.6h5.5v-11.3c1.4-2.2 2.5-2.9 3.9-2.9 1.6 0 2.7 1 2.7 3.5v10.7h5.5v-11.2c0-5.2-3.7-6.7-6.4-6.7-2.2 0-4 .8-5.7 2.9v-2.6zm37.2 8.8c0-6.7-5.6-9.2-9.9-9.2-5.2 0-10 3.1-10 9.1 0 5.5 4.2 9.1 10 9.1 3.9.1 9.9-2 9.9-9zm-6-.1c0 3.9-1.4 6-4 6-2.1 0-4-1.3-4-5.9 0-4 1.6-5.8 4-5.8 2.9-.1 4 2.2 4 5.7zm15.6 9.2h3.1l8.1-17.9h-5.9l-3.8 9.7-3.7-9.7h-5.9l8.1 17.9zm33-4.7c-1.3.9-1.7 1-2.1 1-.6 0-.9-.3-.9-1.2v-8c0-3.9-3-5.3-7.4-5.3-2.8 0-5.3.7-7.6 2.1v4.5c1.8-1.8 4.3-2.9 6.5-2.9 2.4 0 3.2 1.3 3 2.9-7.4 2.3-10.4 3.1-10.4 7.3 0 2.2 2.1 4.3 4.9 4.3 1.9 0 3.7-.5 5.8-2 .4 1.4 1.3 2 3.1 2 1.5 0 3.7-.7 5.2-1.6v-3.1h-.1zm-8.6.1c-.9.8-2 1.3-3 1.3s-1.8-.8-1.8-1.9c0-1.8 1.6-2.5 4.8-3.7v4.3zm4.1-21h-5.7l-2.9 5.9h3.3l5.3-5.9zm32.5 8.7c-1.8-.9-3.5-1.3-5.7-1.3-4.3 0-7.3 2.2-7.3 5.4 0 5.8 8.7 5.3 8.7 7.9 0 .8-1 1.3-2.7 1.3-2.1 0-3.9-.7-5.7-1.5v3.9c.8.4 3.5 1.3 6.3 1.3 4.6 0 7.2-2.1 7.2-5.7 0-5.9-8.7-5.9-8.7-7.9 0-1.2 1.3-1.4 2-1.4 1.1 0 3.5.5 5.9 1.9v-3.9zm-8.8-2.7h5.3l4.5-5.9H261l-3.7 2.9-3.7-2.9h-3.4l4.5 5.9zm20.2-6.7h-5.5v26h5.5v-8.7h.1l6.8 8.7h6.8l-7.2-8.9 6.9-8.7h-6.5l-6.8 8.7h-.1v-17.1zm34.7 17.2c0-6.7-5.6-9.2-9.9-9.2-5.2 0-10 3.1-10 9.1 0 5.5 4.2 9.1 10 9.1 3.9.1 9.9-2 9.9-9zm-5.9-.1c0 3.9-1.4 6-4 6-2.1 0-4-1.3-4-5.9 0-4 1.6-5.8 4-5.8 2.8-.1 4 2.2 4 5.7zm16.8-17.1H315v26h5.5v-26zm24.1 21.6c-1.3.9-1.7 1-2.1 1-.6 0-.9-.3-.9-1.2v-8c0-3.9-3-5.3-7.4-5.3-2.8 0-5.3.7-7.6 2.1v4.5c1.8-1.8 4.3-2.9 6.5-2.9 2.4 0 3.2 1.3 3.1 2.9-7.4 2.3-10.4 3.1-10.4 7.3 0 2.2 2.1 4.3 4.9 4.3 1.9 0 3.7-.5 5.8-2 .4 1.4 1.3 2 3.1 2 1.5 0 3.7-.7 5.2-1.6v-3.1h-.2zm-8.5.1c-.9.8-2 1.3-3.1 1.3-1 0-1.8-.8-1.8-1.9 0-1.8 1.6-2.5 4.8-3.7v4.3h.1z"></path>
</svg>

